<svg aria-label="Economy Society Economy" viewBox="0 0 872 638" xmlns="http://www.w3.org/2000/svg">
  <path d="m402 275c22-3 46-4 73 0l15-14c-35-4-69-4-102 0.9z" fill="#fcc30b"/>
  <path d="m488 316 81 14c-25 13-49 20-73 22l-35-29c10-1 21-2 28-6zm-50-125 42 15c-33 8-59 7-85-0.4z" fill="#fd6925"/>
  <path d="m454 323c-9 0.1-18 0.3-29 0.4l-37 32c32 3 65 3 101-1z" fill="#dda83a"/>
  <path d="m384 314-82 11c-15-11-14-25 2-35l63 10c-0.3 3 7 7 18 14z" fill="#fd9d24"/>
  <path d="m403 279c21-4 47-5 69 0l-0.5 32c-26-3-48-2-69 0z" fill="#fd9d24"/>
  <path d="m303 331c13 11 33 21 78 26l-0.5 33c-27-4-53-9-78-26zm115-8c-11-2-19-4-26-7l-87 14c18 9 33 19 75 23zm-23-151 43 16 42-15c-32-6-53-7-85-0.1z" fill="#c5192d"/>
  <path d="m385 358c35 4 70 4 105-1l1 33c-39 6-69 6-107 1zm-95-42c3 5 9 12 10 14l-0.09 30c-4-2-8-4-11-10zm200-108c5-2 10-5 15-9v29c-4 5-9 8-15 11z" fill="#bf8b2e"/>
  <path d="m495 356c28-5 56-11 77-25v32c-35 24-55 23-77 26zm-103-146c29 9 61 9 93 0v32c-35 8-60 9-93-0.8z" fill="#ff3a21"/>
  <path d="m576 328c5-3 6-7 9-12l7e-3 31c-2 6-5 9-9 13zm-66-28 65-10c11 10 17 20-3 35l-77-11c10-4 14-8 15-14zm-139-102c5 4 10 9 17 10l-0.1 32c-8-2-13-7-17-12zm59-8-41-15c-20 5-29 20-0.6 30z" fill="#a21942"/>
  <path d="m340 385c15 5 60 13 96 13v17c-91-0.7-145 27-146 60h-135c5-37 58-70 185-90z" fill="#56c02b"/>
  <path d="m440 398v17c94 0.4 155 28 145 60h140c0-23-56-72-192-89-28 5-47 12-93 12z" fill="#0a97d9"/>
  <path d="m154 495c23 60 165 86 282 88l0.5 51c-116-1-256-29-283-89zm246-215v33c-2 0.03-3 0.2-5 0.5-50-14-6-35 5-34z" fill="#19486a"/>
  <path d="m437 420 0.5 40c-47 0.7-94 5-126 28-40-21 0-63 126-68zm4 100c82-3 115-15 145-40h140c-15 60-140 96-285 98zm39-244c17 7 27 12 29 19l61-10c-26-12-52-22-75-22z" fill="#4c9f38"/>
  <path d="m440 420c150 3 155 52 128 67-27-16-58-26-128-27zm-150 60c30 25 60 40 146 40v58c-170-2-281-48-282-98zm77-185-60-8c22-10 42-21 75-24l15 12c-17 4-26 11-30 20z" fill="#00689d"/>
  <path d="m440 583c155-3 262-44 285-91v48c-23 59-125 93-285 94zm37-304c34 9 37 24 6 35-2-1-4-2-6-2z" fill="#3f7e44"/>
  <path d="m454 323c-9 0.1-18 0.3-29 0.4l-37 32c32 3 65 3 101-1zm-9-133 40-15c30 10 22 20 2 30z" fill="#dda83a"/>
</svg>
